%TF.GenerationSoftware,KiCad,Pcbnew,(6.0.9)*%
%TF.CreationDate,2023-06-07T19:24:55+02:00*%
%TF.ProjectId,PCB_Complet,5043425f-436f-46d7-906c-65742e6b6963,rev?*%
%TF.SameCoordinates,Original*%
%TF.FileFunction,Legend,Top*%
%TF.FilePolarity,Positive*%
%FSLAX46Y46*%
G04 Gerber Fmt 4.6, Leading zero omitted, Abs format (unit mm)*
G04 Created by KiCad (PCBNEW (6.0.9)) date 2023-06-07 19:24:55*
%MOMM*%
%LPD*%
G01*
G04 APERTURE LIST*
%ADD10C,0.150000*%
%ADD11C,0.120000*%
G04 APERTURE END LIST*
D10*
%TO.C,M2*%
X85522380Y-77009523D02*
X84522380Y-77009523D01*
X85236666Y-76676190D01*
X84522380Y-76342857D01*
X85522380Y-76342857D01*
X84617619Y-75914285D02*
X84570000Y-75866666D01*
X84522380Y-75771428D01*
X84522380Y-75533333D01*
X84570000Y-75438095D01*
X84617619Y-75390476D01*
X84712857Y-75342857D01*
X84808095Y-75342857D01*
X84950952Y-75390476D01*
X85522380Y-75961904D01*
X85522380Y-75342857D01*
X123622380Y-125269523D02*
X122622380Y-125269523D01*
X123336666Y-124936190D01*
X122622380Y-124602857D01*
X123622380Y-124602857D01*
X122717619Y-124174285D02*
X122670000Y-124126666D01*
X122622380Y-124031428D01*
X122622380Y-123793333D01*
X122670000Y-123698095D01*
X122717619Y-123650476D01*
X122812857Y-123602857D01*
X122908095Y-123602857D01*
X123050952Y-123650476D01*
X123622380Y-124221904D01*
X123622380Y-123602857D01*
%TO.C,C1*%
X100587142Y-67486666D02*
X100634761Y-67534285D01*
X100682380Y-67677142D01*
X100682380Y-67772380D01*
X100634761Y-67915238D01*
X100539523Y-68010476D01*
X100444285Y-68058095D01*
X100253809Y-68105714D01*
X100110952Y-68105714D01*
X99920476Y-68058095D01*
X99825238Y-68010476D01*
X99730000Y-67915238D01*
X99682380Y-67772380D01*
X99682380Y-67677142D01*
X99730000Y-67534285D01*
X99777619Y-67486666D01*
X100682380Y-66534285D02*
X100682380Y-67105714D01*
X100682380Y-66820000D02*
X99682380Y-66820000D01*
X99825238Y-66915238D01*
X99920476Y-67010476D01*
X99968095Y-67105714D01*
%TO.C,J6*%
X120082380Y-112123333D02*
X120796666Y-112123333D01*
X120939523Y-112170952D01*
X121034761Y-112266190D01*
X121082380Y-112409047D01*
X121082380Y-112504285D01*
X120082380Y-111218571D02*
X120082380Y-111409047D01*
X120130000Y-111504285D01*
X120177619Y-111551904D01*
X120320476Y-111647142D01*
X120510952Y-111694761D01*
X120891904Y-111694761D01*
X120987142Y-111647142D01*
X121034761Y-111599523D01*
X121082380Y-111504285D01*
X121082380Y-111313809D01*
X121034761Y-111218571D01*
X120987142Y-111170952D01*
X120891904Y-111123333D01*
X120653809Y-111123333D01*
X120558571Y-111170952D01*
X120510952Y-111218571D01*
X120463333Y-111313809D01*
X120463333Y-111504285D01*
X120510952Y-111599523D01*
X120558571Y-111647142D01*
X120653809Y-111694761D01*
X126452380Y-112648571D02*
X126452380Y-112077142D01*
X127452380Y-112362857D02*
X126452380Y-112362857D01*
X127452380Y-111600952D02*
X127404761Y-111696190D01*
X127357142Y-111743809D01*
X127261904Y-111791428D01*
X126976190Y-111791428D01*
X126880952Y-111743809D01*
X126833333Y-111696190D01*
X126785714Y-111600952D01*
X126785714Y-111458095D01*
X126833333Y-111362857D01*
X126880952Y-111315238D01*
X126976190Y-111267619D01*
X127261904Y-111267619D01*
X127357142Y-111315238D01*
X127404761Y-111362857D01*
X127452380Y-111458095D01*
X127452380Y-111600952D01*
X127547619Y-111077142D02*
X127547619Y-110315238D01*
X127357142Y-109505714D02*
X127404761Y-109553333D01*
X127452380Y-109696190D01*
X127452380Y-109791428D01*
X127404761Y-109934285D01*
X127309523Y-110029523D01*
X127214285Y-110077142D01*
X127023809Y-110124761D01*
X126880952Y-110124761D01*
X126690476Y-110077142D01*
X126595238Y-110029523D01*
X126500000Y-109934285D01*
X126452380Y-109791428D01*
X126452380Y-109696190D01*
X126500000Y-109553333D01*
X126547619Y-109505714D01*
X127071428Y-109077142D02*
X127071428Y-108315238D01*
X126452380Y-107981904D02*
X127452380Y-107648571D01*
X126452380Y-107315238D01*
X127452380Y-106553333D02*
X126928571Y-106553333D01*
X126833333Y-106600952D01*
X126785714Y-106696190D01*
X126785714Y-106886666D01*
X126833333Y-106981904D01*
X127404761Y-106553333D02*
X127452380Y-106648571D01*
X127452380Y-106886666D01*
X127404761Y-106981904D01*
X127309523Y-107029523D01*
X127214285Y-107029523D01*
X127119047Y-106981904D01*
X127071428Y-106886666D01*
X127071428Y-106648571D01*
X127023809Y-106553333D01*
X127452380Y-106077142D02*
X126785714Y-106077142D01*
X126976190Y-106077142D02*
X126880952Y-106029523D01*
X126833333Y-105981904D01*
X126785714Y-105886666D01*
X126785714Y-105791428D01*
%TO.C,C4*%
X100667142Y-73786666D02*
X100714761Y-73834285D01*
X100762380Y-73977142D01*
X100762380Y-74072380D01*
X100714761Y-74215238D01*
X100619523Y-74310476D01*
X100524285Y-74358095D01*
X100333809Y-74405714D01*
X100190952Y-74405714D01*
X100000476Y-74358095D01*
X99905238Y-74310476D01*
X99810000Y-74215238D01*
X99762380Y-74072380D01*
X99762380Y-73977142D01*
X99810000Y-73834285D01*
X99857619Y-73786666D01*
X100095714Y-72929523D02*
X100762380Y-72929523D01*
X99714761Y-73167619D02*
X100429047Y-73405714D01*
X100429047Y-72786666D01*
%TO.C,R3*%
X119662380Y-119546666D02*
X119186190Y-119880000D01*
X119662380Y-120118095D02*
X118662380Y-120118095D01*
X118662380Y-119737142D01*
X118710000Y-119641904D01*
X118757619Y-119594285D01*
X118852857Y-119546666D01*
X118995714Y-119546666D01*
X119090952Y-119594285D01*
X119138571Y-119641904D01*
X119186190Y-119737142D01*
X119186190Y-120118095D01*
X118662380Y-119213333D02*
X118662380Y-118594285D01*
X119043333Y-118927619D01*
X119043333Y-118784761D01*
X119090952Y-118689523D01*
X119138571Y-118641904D01*
X119233809Y-118594285D01*
X119471904Y-118594285D01*
X119567142Y-118641904D01*
X119614761Y-118689523D01*
X119662380Y-118784761D01*
X119662380Y-119070476D01*
X119614761Y-119165714D01*
X119567142Y-119213333D01*
%TO.C,SW1*%
X123864761Y-80073333D02*
X123912380Y-79930476D01*
X123912380Y-79692380D01*
X123864761Y-79597142D01*
X123817142Y-79549523D01*
X123721904Y-79501904D01*
X123626666Y-79501904D01*
X123531428Y-79549523D01*
X123483809Y-79597142D01*
X123436190Y-79692380D01*
X123388571Y-79882857D01*
X123340952Y-79978095D01*
X123293333Y-80025714D01*
X123198095Y-80073333D01*
X123102857Y-80073333D01*
X123007619Y-80025714D01*
X122960000Y-79978095D01*
X122912380Y-79882857D01*
X122912380Y-79644761D01*
X122960000Y-79501904D01*
X122912380Y-79168571D02*
X123912380Y-78930476D01*
X123198095Y-78740000D01*
X123912380Y-78549523D01*
X122912380Y-78311428D01*
X123912380Y-77406666D02*
X123912380Y-77978095D01*
X123912380Y-77692380D02*
X122912380Y-77692380D01*
X123055238Y-77787619D01*
X123150476Y-77882857D01*
X123198095Y-77978095D01*
X128992380Y-81216190D02*
X127992380Y-81216190D01*
X127992380Y-80835238D01*
X128040000Y-80740000D01*
X128087619Y-80692380D01*
X128182857Y-80644761D01*
X128325714Y-80644761D01*
X128420952Y-80692380D01*
X128468571Y-80740000D01*
X128516190Y-80835238D01*
X128516190Y-81216190D01*
X128468571Y-79882857D02*
X128516190Y-79740000D01*
X128563809Y-79692380D01*
X128659047Y-79644761D01*
X128801904Y-79644761D01*
X128897142Y-79692380D01*
X128944761Y-79740000D01*
X128992380Y-79835238D01*
X128992380Y-80216190D01*
X127992380Y-80216190D01*
X127992380Y-79882857D01*
X128040000Y-79787619D01*
X128087619Y-79740000D01*
X128182857Y-79692380D01*
X128278095Y-79692380D01*
X128373333Y-79740000D01*
X128420952Y-79787619D01*
X128468571Y-79882857D01*
X128468571Y-80216190D01*
X129087619Y-79454285D02*
X129087619Y-78692380D01*
X128897142Y-77882857D02*
X128944761Y-77930476D01*
X128992380Y-78073333D01*
X128992380Y-78168571D01*
X128944761Y-78311428D01*
X128849523Y-78406666D01*
X128754285Y-78454285D01*
X128563809Y-78501904D01*
X128420952Y-78501904D01*
X128230476Y-78454285D01*
X128135238Y-78406666D01*
X128040000Y-78311428D01*
X127992380Y-78168571D01*
X127992380Y-78073333D01*
X128040000Y-77930476D01*
X128087619Y-77882857D01*
X128706666Y-77501904D02*
X128706666Y-77025714D01*
X128992380Y-77597142D02*
X127992380Y-77263809D01*
X128992380Y-76930476D01*
X128992380Y-76120952D02*
X128992380Y-76597142D01*
X127992380Y-76597142D01*
%TO.C,R4*%
X119193333Y-106962380D02*
X118860000Y-106486190D01*
X118621904Y-106962380D02*
X118621904Y-105962380D01*
X119002857Y-105962380D01*
X119098095Y-106010000D01*
X119145714Y-106057619D01*
X119193333Y-106152857D01*
X119193333Y-106295714D01*
X119145714Y-106390952D01*
X119098095Y-106438571D01*
X119002857Y-106486190D01*
X118621904Y-106486190D01*
X120050476Y-106295714D02*
X120050476Y-106962380D01*
X119812380Y-105914761D02*
X119574285Y-106629047D01*
X120193333Y-106629047D01*
%TO.C,U1*%
X107168095Y-62252380D02*
X107168095Y-63061904D01*
X107215714Y-63157142D01*
X107263333Y-63204761D01*
X107358571Y-63252380D01*
X107549047Y-63252380D01*
X107644285Y-63204761D01*
X107691904Y-63157142D01*
X107739523Y-63061904D01*
X107739523Y-62252380D01*
X108739523Y-63252380D02*
X108168095Y-63252380D01*
X108453809Y-63252380D02*
X108453809Y-62252380D01*
X108358571Y-62395238D01*
X108263333Y-62490476D01*
X108168095Y-62538095D01*
X116002380Y-68206666D02*
X116002380Y-68682857D01*
X115002380Y-68682857D01*
X116002380Y-67873333D02*
X115002380Y-67873333D01*
X115716666Y-67540000D01*
X115002380Y-67206666D01*
X116002380Y-67206666D01*
X115002380Y-66825714D02*
X115002380Y-66159047D01*
X116002380Y-66587619D01*
X115430952Y-65635238D02*
X115383333Y-65730476D01*
X115335714Y-65778095D01*
X115240476Y-65825714D01*
X115192857Y-65825714D01*
X115097619Y-65778095D01*
X115050000Y-65730476D01*
X115002380Y-65635238D01*
X115002380Y-65444761D01*
X115050000Y-65349523D01*
X115097619Y-65301904D01*
X115192857Y-65254285D01*
X115240476Y-65254285D01*
X115335714Y-65301904D01*
X115383333Y-65349523D01*
X115430952Y-65444761D01*
X115430952Y-65635238D01*
X115478571Y-65730476D01*
X115526190Y-65778095D01*
X115621428Y-65825714D01*
X115811904Y-65825714D01*
X115907142Y-65778095D01*
X115954761Y-65730476D01*
X116002380Y-65635238D01*
X116002380Y-65444761D01*
X115954761Y-65349523D01*
X115907142Y-65301904D01*
X115811904Y-65254285D01*
X115621428Y-65254285D01*
X115526190Y-65301904D01*
X115478571Y-65349523D01*
X115430952Y-65444761D01*
X115002380Y-64635238D02*
X115002380Y-64540000D01*
X115050000Y-64444761D01*
X115097619Y-64397142D01*
X115192857Y-64349523D01*
X115383333Y-64301904D01*
X115621428Y-64301904D01*
X115811904Y-64349523D01*
X115907142Y-64397142D01*
X115954761Y-64444761D01*
X116002380Y-64540000D01*
X116002380Y-64635238D01*
X115954761Y-64730476D01*
X115907142Y-64778095D01*
X115811904Y-64825714D01*
X115621428Y-64873333D01*
X115383333Y-64873333D01*
X115192857Y-64825714D01*
X115097619Y-64778095D01*
X115050000Y-64730476D01*
X115002380Y-64635238D01*
X115002380Y-63397142D02*
X115002380Y-63873333D01*
X115478571Y-63920952D01*
X115430952Y-63873333D01*
X115383333Y-63778095D01*
X115383333Y-63540000D01*
X115430952Y-63444761D01*
X115478571Y-63397142D01*
X115573809Y-63349523D01*
X115811904Y-63349523D01*
X115907142Y-63397142D01*
X115954761Y-63444761D01*
X116002380Y-63540000D01*
X116002380Y-63778095D01*
X115954761Y-63873333D01*
X115907142Y-63920952D01*
%TO.C,R6*%
X91253333Y-81562380D02*
X90920000Y-81086190D01*
X90681904Y-81562380D02*
X90681904Y-80562380D01*
X91062857Y-80562380D01*
X91158095Y-80610000D01*
X91205714Y-80657619D01*
X91253333Y-80752857D01*
X91253333Y-80895714D01*
X91205714Y-80990952D01*
X91158095Y-81038571D01*
X91062857Y-81086190D01*
X90681904Y-81086190D01*
X92110476Y-80562380D02*
X91920000Y-80562380D01*
X91824761Y-80610000D01*
X91777142Y-80657619D01*
X91681904Y-80800476D01*
X91634285Y-80990952D01*
X91634285Y-81371904D01*
X91681904Y-81467142D01*
X91729523Y-81514761D01*
X91824761Y-81562380D01*
X92015238Y-81562380D01*
X92110476Y-81514761D01*
X92158095Y-81467142D01*
X92205714Y-81371904D01*
X92205714Y-81133809D01*
X92158095Y-81038571D01*
X92110476Y-80990952D01*
X92015238Y-80943333D01*
X91824761Y-80943333D01*
X91729523Y-80990952D01*
X91681904Y-81038571D01*
X91634285Y-81133809D01*
%TO.C,R2*%
X123003333Y-69202380D02*
X122670000Y-68726190D01*
X122431904Y-69202380D02*
X122431904Y-68202380D01*
X122812857Y-68202380D01*
X122908095Y-68250000D01*
X122955714Y-68297619D01*
X123003333Y-68392857D01*
X123003333Y-68535714D01*
X122955714Y-68630952D01*
X122908095Y-68678571D01*
X122812857Y-68726190D01*
X122431904Y-68726190D01*
X123384285Y-68297619D02*
X123431904Y-68250000D01*
X123527142Y-68202380D01*
X123765238Y-68202380D01*
X123860476Y-68250000D01*
X123908095Y-68297619D01*
X123955714Y-68392857D01*
X123955714Y-68488095D01*
X123908095Y-68630952D01*
X123336666Y-69202380D01*
X123955714Y-69202380D01*
%TO.C,C2*%
X103207142Y-73786666D02*
X103254761Y-73834285D01*
X103302380Y-73977142D01*
X103302380Y-74072380D01*
X103254761Y-74215238D01*
X103159523Y-74310476D01*
X103064285Y-74358095D01*
X102873809Y-74405714D01*
X102730952Y-74405714D01*
X102540476Y-74358095D01*
X102445238Y-74310476D01*
X102350000Y-74215238D01*
X102302380Y-74072380D01*
X102302380Y-73977142D01*
X102350000Y-73834285D01*
X102397619Y-73786666D01*
X102397619Y-73405714D02*
X102350000Y-73358095D01*
X102302380Y-73262857D01*
X102302380Y-73024761D01*
X102350000Y-72929523D01*
X102397619Y-72881904D01*
X102492857Y-72834285D01*
X102588095Y-72834285D01*
X102730952Y-72881904D01*
X103302380Y-73453333D01*
X103302380Y-72834285D01*
%TO.C,J3*%
X87276666Y-96182380D02*
X87276666Y-96896666D01*
X87229047Y-97039523D01*
X87133809Y-97134761D01*
X86990952Y-97182380D01*
X86895714Y-97182380D01*
X87657619Y-96182380D02*
X88276666Y-96182380D01*
X87943333Y-96563333D01*
X88086190Y-96563333D01*
X88181428Y-96610952D01*
X88229047Y-96658571D01*
X88276666Y-96753809D01*
X88276666Y-96991904D01*
X88229047Y-97087142D01*
X88181428Y-97134761D01*
X88086190Y-97182380D01*
X87800476Y-97182380D01*
X87705238Y-97134761D01*
X87657619Y-97087142D01*
X85474761Y-105361904D02*
X85522380Y-105219047D01*
X85522380Y-104980952D01*
X85474761Y-104885714D01*
X85427142Y-104838095D01*
X85331904Y-104790476D01*
X85236666Y-104790476D01*
X85141428Y-104838095D01*
X85093809Y-104885714D01*
X85046190Y-104980952D01*
X84998571Y-105171428D01*
X84950952Y-105266666D01*
X84903333Y-105314285D01*
X84808095Y-105361904D01*
X84712857Y-105361904D01*
X84617619Y-105314285D01*
X84570000Y-105266666D01*
X84522380Y-105171428D01*
X84522380Y-104933333D01*
X84570000Y-104790476D01*
X85427142Y-103790476D02*
X85474761Y-103838095D01*
X85522380Y-103980952D01*
X85522380Y-104076190D01*
X85474761Y-104219047D01*
X85379523Y-104314285D01*
X85284285Y-104361904D01*
X85093809Y-104409523D01*
X84950952Y-104409523D01*
X84760476Y-104361904D01*
X84665238Y-104314285D01*
X84570000Y-104219047D01*
X84522380Y-104076190D01*
X84522380Y-103980952D01*
X84570000Y-103838095D01*
X84617619Y-103790476D01*
X85522380Y-102790476D02*
X85046190Y-103123809D01*
X85522380Y-103361904D02*
X84522380Y-103361904D01*
X84522380Y-102980952D01*
X84570000Y-102885714D01*
X84617619Y-102838095D01*
X84712857Y-102790476D01*
X84855714Y-102790476D01*
X84950952Y-102838095D01*
X84998571Y-102885714D01*
X85046190Y-102980952D01*
X85046190Y-103361904D01*
X85522380Y-102361904D02*
X84522380Y-102361904D01*
X85522380Y-101790476D01*
X84522380Y-101790476D01*
X85617619Y-101552380D02*
X85617619Y-100790476D01*
X85522380Y-100552380D02*
X84522380Y-100552380D01*
X84522380Y-100171428D01*
X84570000Y-100076190D01*
X84617619Y-100028571D01*
X84712857Y-99980952D01*
X84855714Y-99980952D01*
X84950952Y-100028571D01*
X84998571Y-100076190D01*
X85046190Y-100171428D01*
X85046190Y-100552380D01*
X84522380Y-99647619D02*
X85522380Y-99409523D01*
X84808095Y-99219047D01*
X85522380Y-99028571D01*
X84522380Y-98790476D01*
X85522380Y-97838095D02*
X85046190Y-98171428D01*
X85522380Y-98409523D02*
X84522380Y-98409523D01*
X84522380Y-98028571D01*
X84570000Y-97933333D01*
X84617619Y-97885714D01*
X84712857Y-97838095D01*
X84855714Y-97838095D01*
X84950952Y-97885714D01*
X84998571Y-97933333D01*
X85046190Y-98028571D01*
X85046190Y-98409523D01*
%TO.C,C3*%
X109053333Y-77767142D02*
X109005714Y-77814761D01*
X108862857Y-77862380D01*
X108767619Y-77862380D01*
X108624761Y-77814761D01*
X108529523Y-77719523D01*
X108481904Y-77624285D01*
X108434285Y-77433809D01*
X108434285Y-77290952D01*
X108481904Y-77100476D01*
X108529523Y-77005238D01*
X108624761Y-76910000D01*
X108767619Y-76862380D01*
X108862857Y-76862380D01*
X109005714Y-76910000D01*
X109053333Y-76957619D01*
X109386666Y-76862380D02*
X110005714Y-76862380D01*
X109672380Y-77243333D01*
X109815238Y-77243333D01*
X109910476Y-77290952D01*
X109958095Y-77338571D01*
X110005714Y-77433809D01*
X110005714Y-77671904D01*
X109958095Y-77767142D01*
X109910476Y-77814761D01*
X109815238Y-77862380D01*
X109529523Y-77862380D01*
X109434285Y-77814761D01*
X109386666Y-77767142D01*
%TO.C,R1*%
X113632380Y-80176666D02*
X113156190Y-80510000D01*
X113632380Y-80748095D02*
X112632380Y-80748095D01*
X112632380Y-80367142D01*
X112680000Y-80271904D01*
X112727619Y-80224285D01*
X112822857Y-80176666D01*
X112965714Y-80176666D01*
X113060952Y-80224285D01*
X113108571Y-80271904D01*
X113156190Y-80367142D01*
X113156190Y-80748095D01*
X113632380Y-79224285D02*
X113632380Y-79795714D01*
X113632380Y-79510000D02*
X112632380Y-79510000D01*
X112775238Y-79605238D01*
X112870476Y-79700476D01*
X112918095Y-79795714D01*
%TO.C,J4*%
X87276666Y-106342380D02*
X87276666Y-107056666D01*
X87229047Y-107199523D01*
X87133809Y-107294761D01*
X86990952Y-107342380D01*
X86895714Y-107342380D01*
X88181428Y-106675714D02*
X88181428Y-107342380D01*
X87943333Y-106294761D02*
X87705238Y-107009047D01*
X88324285Y-107009047D01*
X85474761Y-120768571D02*
X85522380Y-120625714D01*
X85522380Y-120387619D01*
X85474761Y-120292380D01*
X85427142Y-120244761D01*
X85331904Y-120197142D01*
X85236666Y-120197142D01*
X85141428Y-120244761D01*
X85093809Y-120292380D01*
X85046190Y-120387619D01*
X84998571Y-120578095D01*
X84950952Y-120673333D01*
X84903333Y-120720952D01*
X84808095Y-120768571D01*
X84712857Y-120768571D01*
X84617619Y-120720952D01*
X84570000Y-120673333D01*
X84522380Y-120578095D01*
X84522380Y-120340000D01*
X84570000Y-120197142D01*
X85427142Y-119197142D02*
X85474761Y-119244761D01*
X85522380Y-119387619D01*
X85522380Y-119482857D01*
X85474761Y-119625714D01*
X85379523Y-119720952D01*
X85284285Y-119768571D01*
X85093809Y-119816190D01*
X84950952Y-119816190D01*
X84760476Y-119768571D01*
X84665238Y-119720952D01*
X84570000Y-119625714D01*
X84522380Y-119482857D01*
X84522380Y-119387619D01*
X84570000Y-119244761D01*
X84617619Y-119197142D01*
X85522380Y-118197142D02*
X85046190Y-118530476D01*
X85522380Y-118768571D02*
X84522380Y-118768571D01*
X84522380Y-118387619D01*
X84570000Y-118292380D01*
X84617619Y-118244761D01*
X84712857Y-118197142D01*
X84855714Y-118197142D01*
X84950952Y-118244761D01*
X84998571Y-118292380D01*
X85046190Y-118387619D01*
X85046190Y-118768571D01*
X85522380Y-117768571D02*
X84522380Y-117768571D01*
X85522380Y-117197142D01*
X84522380Y-117197142D01*
X85617619Y-116959047D02*
X85617619Y-116197142D01*
X85522380Y-115959047D02*
X84522380Y-115959047D01*
X84522380Y-115720952D01*
X84570000Y-115578095D01*
X84665238Y-115482857D01*
X84760476Y-115435238D01*
X84950952Y-115387619D01*
X85093809Y-115387619D01*
X85284285Y-115435238D01*
X85379523Y-115482857D01*
X85474761Y-115578095D01*
X85522380Y-115720952D01*
X85522380Y-115959047D01*
X85236666Y-115006666D02*
X85236666Y-114530476D01*
X85522380Y-115101904D02*
X84522380Y-114768571D01*
X85522380Y-114435238D01*
X84522380Y-114244761D02*
X84522380Y-113673333D01*
X85522380Y-113959047D02*
X84522380Y-113959047D01*
X85236666Y-113387619D02*
X85236666Y-112911428D01*
X85522380Y-113482857D02*
X84522380Y-113149523D01*
X85522380Y-112816190D01*
%TO.C,U2*%
X112702380Y-97271904D02*
X113511904Y-97271904D01*
X113607142Y-97224285D01*
X113654761Y-97176666D01*
X113702380Y-97081428D01*
X113702380Y-96890952D01*
X113654761Y-96795714D01*
X113607142Y-96748095D01*
X113511904Y-96700476D01*
X112702380Y-96700476D01*
X112797619Y-96271904D02*
X112750000Y-96224285D01*
X112702380Y-96129047D01*
X112702380Y-95890952D01*
X112750000Y-95795714D01*
X112797619Y-95748095D01*
X112892857Y-95700476D01*
X112988095Y-95700476D01*
X113130952Y-95748095D01*
X113702380Y-96319523D01*
X113702380Y-95700476D01*
X125982380Y-99176666D02*
X124982380Y-99176666D01*
X125982380Y-98605238D01*
X124982380Y-98605238D01*
X125458571Y-98129047D02*
X125458571Y-97795714D01*
X125982380Y-97652857D02*
X125982380Y-98129047D01*
X124982380Y-98129047D01*
X124982380Y-97652857D01*
X124982380Y-96748095D02*
X124982380Y-97224285D01*
X125458571Y-97271904D01*
X125410952Y-97224285D01*
X125363333Y-97129047D01*
X125363333Y-96890952D01*
X125410952Y-96795714D01*
X125458571Y-96748095D01*
X125553809Y-96700476D01*
X125791904Y-96700476D01*
X125887142Y-96748095D01*
X125934761Y-96795714D01*
X125982380Y-96890952D01*
X125982380Y-97129047D01*
X125934761Y-97224285D01*
X125887142Y-97271904D01*
X124982380Y-95795714D02*
X124982380Y-96271904D01*
X125458571Y-96319523D01*
X125410952Y-96271904D01*
X125363333Y-96176666D01*
X125363333Y-95938571D01*
X125410952Y-95843333D01*
X125458571Y-95795714D01*
X125553809Y-95748095D01*
X125791904Y-95748095D01*
X125887142Y-95795714D01*
X125934761Y-95843333D01*
X125982380Y-95938571D01*
X125982380Y-96176666D01*
X125934761Y-96271904D01*
X125887142Y-96319523D01*
X124982380Y-94843333D02*
X124982380Y-95319523D01*
X125458571Y-95367142D01*
X125410952Y-95319523D01*
X125363333Y-95224285D01*
X125363333Y-94986190D01*
X125410952Y-94890952D01*
X125458571Y-94843333D01*
X125553809Y-94795714D01*
X125791904Y-94795714D01*
X125887142Y-94843333D01*
X125934761Y-94890952D01*
X125982380Y-94986190D01*
X125982380Y-95224285D01*
X125934761Y-95319523D01*
X125887142Y-95367142D01*
X125982380Y-94367142D02*
X124982380Y-94367142D01*
X124982380Y-93986190D01*
X125030000Y-93890952D01*
X125077619Y-93843333D01*
X125172857Y-93795714D01*
X125315714Y-93795714D01*
X125410952Y-93843333D01*
X125458571Y-93890952D01*
X125506190Y-93986190D01*
X125506190Y-94367142D01*
%TO.C,A1*%
X100476666Y-107394285D02*
X100476666Y-106918095D01*
X100762380Y-107489523D02*
X99762380Y-107156190D01*
X100762380Y-106822857D01*
X100762380Y-105965714D02*
X100762380Y-106537142D01*
X100762380Y-106251428D02*
X99762380Y-106251428D01*
X99905238Y-106346666D01*
X100000476Y-106441904D01*
X100048095Y-106537142D01*
X103016666Y-116410476D02*
X103016666Y-115934285D01*
X103302380Y-116505714D02*
X102302380Y-116172380D01*
X103302380Y-115839047D01*
X103302380Y-115505714D02*
X102635714Y-115505714D01*
X102826190Y-115505714D02*
X102730952Y-115458095D01*
X102683333Y-115410476D01*
X102635714Y-115315238D01*
X102635714Y-115220000D01*
X103302380Y-114458095D02*
X102302380Y-114458095D01*
X103254761Y-114458095D02*
X103302380Y-114553333D01*
X103302380Y-114743809D01*
X103254761Y-114839047D01*
X103207142Y-114886666D01*
X103111904Y-114934285D01*
X102826190Y-114934285D01*
X102730952Y-114886666D01*
X102683333Y-114839047D01*
X102635714Y-114743809D01*
X102635714Y-114553333D01*
X102683333Y-114458095D01*
X102635714Y-113553333D02*
X103302380Y-113553333D01*
X102635714Y-113981904D02*
X103159523Y-113981904D01*
X103254761Y-113934285D01*
X103302380Y-113839047D01*
X103302380Y-113696190D01*
X103254761Y-113600952D01*
X103207142Y-113553333D01*
X103302380Y-113077142D02*
X102635714Y-113077142D01*
X102302380Y-113077142D02*
X102350000Y-113124761D01*
X102397619Y-113077142D01*
X102350000Y-113029523D01*
X102302380Y-113077142D01*
X102397619Y-113077142D01*
X102635714Y-112600952D02*
X103302380Y-112600952D01*
X102730952Y-112600952D02*
X102683333Y-112553333D01*
X102635714Y-112458095D01*
X102635714Y-112315238D01*
X102683333Y-112220000D01*
X102778571Y-112172380D01*
X103302380Y-112172380D01*
X103302380Y-111553333D02*
X103254761Y-111648571D01*
X103207142Y-111696190D01*
X103111904Y-111743809D01*
X102826190Y-111743809D01*
X102730952Y-111696190D01*
X102683333Y-111648571D01*
X102635714Y-111553333D01*
X102635714Y-111410476D01*
X102683333Y-111315238D01*
X102730952Y-111267619D01*
X102826190Y-111220000D01*
X103111904Y-111220000D01*
X103207142Y-111267619D01*
X103254761Y-111315238D01*
X103302380Y-111410476D01*
X103302380Y-111553333D01*
X103397619Y-111029523D02*
X103397619Y-110267619D01*
X103302380Y-110029523D02*
X102302380Y-110029523D01*
X103302380Y-109458095D01*
X102302380Y-109458095D01*
X103302380Y-108553333D02*
X102778571Y-108553333D01*
X102683333Y-108600952D01*
X102635714Y-108696190D01*
X102635714Y-108886666D01*
X102683333Y-108981904D01*
X103254761Y-108553333D02*
X103302380Y-108648571D01*
X103302380Y-108886666D01*
X103254761Y-108981904D01*
X103159523Y-109029523D01*
X103064285Y-109029523D01*
X102969047Y-108981904D01*
X102921428Y-108886666D01*
X102921428Y-108648571D01*
X102873809Y-108553333D01*
X102635714Y-108077142D02*
X103302380Y-108077142D01*
X102730952Y-108077142D02*
X102683333Y-108029523D01*
X102635714Y-107934285D01*
X102635714Y-107791428D01*
X102683333Y-107696190D01*
X102778571Y-107648571D01*
X103302380Y-107648571D01*
X103302380Y-107029523D02*
X103254761Y-107124761D01*
X103207142Y-107172380D01*
X103111904Y-107220000D01*
X102826190Y-107220000D01*
X102730952Y-107172380D01*
X102683333Y-107124761D01*
X102635714Y-107029523D01*
X102635714Y-106886666D01*
X102683333Y-106791428D01*
X102730952Y-106743809D01*
X102826190Y-106696190D01*
X103111904Y-106696190D01*
X103207142Y-106743809D01*
X103254761Y-106791428D01*
X103302380Y-106886666D01*
X103302380Y-107029523D01*
X103397619Y-106505714D02*
X103397619Y-105743809D01*
X102778571Y-105505714D02*
X102778571Y-105172380D01*
X103302380Y-105029523D02*
X103302380Y-105505714D01*
X102302380Y-105505714D01*
X102302380Y-105029523D01*
X102635714Y-104696190D02*
X103302380Y-104458095D01*
X102635714Y-104220000D01*
X103254761Y-103458095D02*
X103302380Y-103553333D01*
X103302380Y-103743809D01*
X103254761Y-103839047D01*
X103159523Y-103886666D01*
X102778571Y-103886666D01*
X102683333Y-103839047D01*
X102635714Y-103743809D01*
X102635714Y-103553333D01*
X102683333Y-103458095D01*
X102778571Y-103410476D01*
X102873809Y-103410476D01*
X102969047Y-103886666D01*
X103302380Y-102981904D02*
X102635714Y-102981904D01*
X102826190Y-102981904D02*
X102730952Y-102934285D01*
X102683333Y-102886666D01*
X102635714Y-102791428D01*
X102635714Y-102696190D01*
X102635714Y-102458095D02*
X103302380Y-102220000D01*
X102635714Y-101981904D02*
X103302380Y-102220000D01*
X103540476Y-102315238D01*
X103588095Y-102362857D01*
X103635714Y-102458095D01*
X100338095Y-121372380D02*
X100338095Y-122181904D01*
X100385714Y-122277142D01*
X100433333Y-122324761D01*
X100528571Y-122372380D01*
X100719047Y-122372380D01*
X100814285Y-122324761D01*
X100861904Y-122277142D01*
X100909523Y-122181904D01*
X100909523Y-121372380D01*
X101338095Y-122324761D02*
X101480952Y-122372380D01*
X101719047Y-122372380D01*
X101814285Y-122324761D01*
X101861904Y-122277142D01*
X101909523Y-122181904D01*
X101909523Y-122086666D01*
X101861904Y-121991428D01*
X101814285Y-121943809D01*
X101719047Y-121896190D01*
X101528571Y-121848571D01*
X101433333Y-121800952D01*
X101385714Y-121753333D01*
X101338095Y-121658095D01*
X101338095Y-121562857D01*
X101385714Y-121467619D01*
X101433333Y-121420000D01*
X101528571Y-121372380D01*
X101766666Y-121372380D01*
X101909523Y-121420000D01*
X102671428Y-121848571D02*
X102814285Y-121896190D01*
X102861904Y-121943809D01*
X102909523Y-122039047D01*
X102909523Y-122181904D01*
X102861904Y-122277142D01*
X102814285Y-122324761D01*
X102719047Y-122372380D01*
X102338095Y-122372380D01*
X102338095Y-121372380D01*
X102671428Y-121372380D01*
X102766666Y-121420000D01*
X102814285Y-121467619D01*
X102861904Y-121562857D01*
X102861904Y-121658095D01*
X102814285Y-121753333D01*
X102766666Y-121800952D01*
X102671428Y-121848571D01*
X102338095Y-121848571D01*
%TO.C,J2*%
X87276666Y-83482380D02*
X87276666Y-84196666D01*
X87229047Y-84339523D01*
X87133809Y-84434761D01*
X86990952Y-84482380D01*
X86895714Y-84482380D01*
X87705238Y-83577619D02*
X87752857Y-83530000D01*
X87848095Y-83482380D01*
X88086190Y-83482380D01*
X88181428Y-83530000D01*
X88229047Y-83577619D01*
X88276666Y-83672857D01*
X88276666Y-83768095D01*
X88229047Y-83910952D01*
X87657619Y-84482380D01*
X88276666Y-84482380D01*
X84522380Y-92574642D02*
X84522380Y-92003214D01*
X85522380Y-92288928D02*
X84522380Y-92288928D01*
X84998571Y-91669880D02*
X84998571Y-91336547D01*
X85522380Y-91193690D02*
X85522380Y-91669880D01*
X84522380Y-91669880D01*
X84522380Y-91193690D01*
X85522380Y-90765119D02*
X84522380Y-90765119D01*
X85236666Y-90431785D01*
X84522380Y-90098452D01*
X85522380Y-90098452D01*
X85522380Y-89622261D02*
X84522380Y-89622261D01*
X84522380Y-89241309D01*
X84570000Y-89146071D01*
X84617619Y-89098452D01*
X84712857Y-89050833D01*
X84855714Y-89050833D01*
X84950952Y-89098452D01*
X84998571Y-89146071D01*
X85046190Y-89241309D01*
X85046190Y-89622261D01*
X85617619Y-88860357D02*
X85617619Y-88098452D01*
X85236666Y-87907976D02*
X85236666Y-87431785D01*
X85522380Y-88003214D02*
X84522380Y-87669880D01*
X85522380Y-87336547D01*
X85522380Y-87003214D02*
X84522380Y-87003214D01*
X85522380Y-85955595D02*
X85046190Y-86288928D01*
X85522380Y-86527023D02*
X84522380Y-86527023D01*
X84522380Y-86146071D01*
X84570000Y-86050833D01*
X84617619Y-86003214D01*
X84712857Y-85955595D01*
X84855714Y-85955595D01*
X84950952Y-86003214D01*
X84998571Y-86050833D01*
X85046190Y-86146071D01*
X85046190Y-86527023D01*
%TO.C,J1*%
X87276666Y-63192380D02*
X87276666Y-63906666D01*
X87229047Y-64049523D01*
X87133809Y-64144761D01*
X86990952Y-64192380D01*
X86895714Y-64192380D01*
X88276666Y-64192380D02*
X87705238Y-64192380D01*
X87990952Y-64192380D02*
X87990952Y-63192380D01*
X87895714Y-63335238D01*
X87800476Y-63430476D01*
X87705238Y-63478095D01*
X85141428Y-68897142D02*
X85141428Y-68135238D01*
X85522380Y-68516190D02*
X84760476Y-68516190D01*
X85522380Y-67135238D02*
X85522380Y-67706666D01*
X85522380Y-67420952D02*
X84522380Y-67420952D01*
X84665238Y-67516190D01*
X84760476Y-67611428D01*
X84808095Y-67706666D01*
X84617619Y-66754285D02*
X84570000Y-66706666D01*
X84522380Y-66611428D01*
X84522380Y-66373333D01*
X84570000Y-66278095D01*
X84617619Y-66230476D01*
X84712857Y-66182857D01*
X84808095Y-66182857D01*
X84950952Y-66230476D01*
X85522380Y-66801904D01*
X85522380Y-66182857D01*
X85617619Y-65992380D02*
X85617619Y-65230476D01*
X84998571Y-64992380D02*
X84998571Y-64659047D01*
X85522380Y-64516190D02*
X85522380Y-64992380D01*
X84522380Y-64992380D01*
X84522380Y-64516190D01*
X85522380Y-64182857D02*
X84855714Y-63659047D01*
X84855714Y-64182857D02*
X85522380Y-63659047D01*
X84855714Y-63420952D02*
X84855714Y-63040000D01*
X84522380Y-63278095D02*
X85379523Y-63278095D01*
X85474761Y-63230476D01*
X85522380Y-63135238D01*
X85522380Y-63040000D01*
%TO.C,J5*%
X122622380Y-122253333D02*
X123336666Y-122253333D01*
X123479523Y-122300952D01*
X123574761Y-122396190D01*
X123622380Y-122539047D01*
X123622380Y-122634285D01*
X122622380Y-121300952D02*
X122622380Y-121777142D01*
X123098571Y-121824761D01*
X123050952Y-121777142D01*
X123003333Y-121681904D01*
X123003333Y-121443809D01*
X123050952Y-121348571D01*
X123098571Y-121300952D01*
X123193809Y-121253333D01*
X123431904Y-121253333D01*
X123527142Y-121300952D01*
X123574761Y-121348571D01*
X123622380Y-121443809D01*
X123622380Y-121681904D01*
X123574761Y-121777142D01*
X123527142Y-121824761D01*
X120082380Y-121800476D02*
X120082380Y-121229047D01*
X121082380Y-121514761D02*
X120082380Y-121514761D01*
X121034761Y-120514761D02*
X121082380Y-120610000D01*
X121082380Y-120800476D01*
X121034761Y-120895714D01*
X120939523Y-120943333D01*
X120558571Y-120943333D01*
X120463333Y-120895714D01*
X120415714Y-120800476D01*
X120415714Y-120610000D01*
X120463333Y-120514761D01*
X120558571Y-120467142D01*
X120653809Y-120467142D01*
X120749047Y-120943333D01*
X121082380Y-120038571D02*
X120415714Y-120038571D01*
X120510952Y-120038571D02*
X120463333Y-119990952D01*
X120415714Y-119895714D01*
X120415714Y-119752857D01*
X120463333Y-119657619D01*
X120558571Y-119610000D01*
X121082380Y-119610000D01*
X120558571Y-119610000D02*
X120463333Y-119562380D01*
X120415714Y-119467142D01*
X120415714Y-119324285D01*
X120463333Y-119229047D01*
X120558571Y-119181428D01*
X121082380Y-119181428D01*
X120415714Y-118705238D02*
X121415714Y-118705238D01*
X120463333Y-118705238D02*
X120415714Y-118610000D01*
X120415714Y-118419523D01*
X120463333Y-118324285D01*
X120510952Y-118276666D01*
X120606190Y-118229047D01*
X120891904Y-118229047D01*
X120987142Y-118276666D01*
X121034761Y-118324285D01*
X121082380Y-118419523D01*
X121082380Y-118610000D01*
X121034761Y-118705238D01*
X121177619Y-118038571D02*
X121177619Y-117276666D01*
X120558571Y-117038571D02*
X120558571Y-116705238D01*
X121082380Y-116562380D02*
X121082380Y-117038571D01*
X120082380Y-117038571D01*
X120082380Y-116562380D01*
X121082380Y-116133809D02*
X120082380Y-116133809D01*
X121082380Y-115562380D01*
X120082380Y-115562380D01*
X120130000Y-114562380D02*
X120082380Y-114657619D01*
X120082380Y-114800476D01*
X120130000Y-114943333D01*
X120225238Y-115038571D01*
X120320476Y-115086190D01*
X120510952Y-115133809D01*
X120653809Y-115133809D01*
X120844285Y-115086190D01*
X120939523Y-115038571D01*
X121034761Y-114943333D01*
X121082380Y-114800476D01*
X121082380Y-114705238D01*
X121034761Y-114562380D01*
X120987142Y-114514761D01*
X120653809Y-114514761D01*
X120653809Y-114705238D01*
%TO.C,R5*%
X117943333Y-86982380D02*
X117610000Y-86506190D01*
X117371904Y-86982380D02*
X117371904Y-85982380D01*
X117752857Y-85982380D01*
X117848095Y-86030000D01*
X117895714Y-86077619D01*
X117943333Y-86172857D01*
X117943333Y-86315714D01*
X117895714Y-86410952D01*
X117848095Y-86458571D01*
X117752857Y-86506190D01*
X117371904Y-86506190D01*
X118848095Y-85982380D02*
X118371904Y-85982380D01*
X118324285Y-86458571D01*
X118371904Y-86410952D01*
X118467142Y-86363333D01*
X118705238Y-86363333D01*
X118800476Y-86410952D01*
X118848095Y-86458571D01*
X118895714Y-86553809D01*
X118895714Y-86791904D01*
X118848095Y-86887142D01*
X118800476Y-86934761D01*
X118705238Y-86982380D01*
X118467142Y-86982380D01*
X118371904Y-86934761D01*
X118324285Y-86887142D01*
%TO.C,D1*%
X123701904Y-63532380D02*
X123701904Y-62532380D01*
X123940000Y-62532380D01*
X124082857Y-62580000D01*
X124178095Y-62675238D01*
X124225714Y-62770476D01*
X124273333Y-62960952D01*
X124273333Y-63103809D01*
X124225714Y-63294285D01*
X124178095Y-63389523D01*
X124082857Y-63484761D01*
X123940000Y-63532380D01*
X123701904Y-63532380D01*
X125225714Y-63532380D02*
X124654285Y-63532380D01*
X124940000Y-63532380D02*
X124940000Y-62532380D01*
X124844761Y-62675238D01*
X124749523Y-62770476D01*
X124654285Y-62818095D01*
X121082380Y-68397142D02*
X121082380Y-68873333D01*
X120082380Y-68873333D01*
X120558571Y-68063809D02*
X120558571Y-67730476D01*
X121082380Y-67587619D02*
X121082380Y-68063809D01*
X120082380Y-68063809D01*
X120082380Y-67587619D01*
X121082380Y-67159047D02*
X120082380Y-67159047D01*
X120082380Y-66920952D01*
X120130000Y-66778095D01*
X120225238Y-66682857D01*
X120320476Y-66635238D01*
X120510952Y-66587619D01*
X120653809Y-66587619D01*
X120844285Y-66635238D01*
X120939523Y-66682857D01*
X121034761Y-66778095D01*
X121082380Y-66920952D01*
X121082380Y-67159047D01*
X121177619Y-66397142D02*
X121177619Y-65635238D01*
X120987142Y-64825714D02*
X121034761Y-64873333D01*
X121082380Y-65016190D01*
X121082380Y-65111428D01*
X121034761Y-65254285D01*
X120939523Y-65349523D01*
X120844285Y-65397142D01*
X120653809Y-65444761D01*
X120510952Y-65444761D01*
X120320476Y-65397142D01*
X120225238Y-65349523D01*
X120130000Y-65254285D01*
X120082380Y-65111428D01*
X120082380Y-65016190D01*
X120130000Y-64873333D01*
X120177619Y-64825714D01*
X120796666Y-64444761D02*
X120796666Y-63968571D01*
X121082380Y-64540000D02*
X120082380Y-64206666D01*
X121082380Y-63873333D01*
X121082380Y-63063809D02*
X121082380Y-63540000D01*
X120082380Y-63540000D01*
D11*
%TO.C,C1*%
X98968000Y-68161000D02*
X96270000Y-68161000D01*
X94190000Y-68721000D02*
X91662000Y-68721000D01*
X99060000Y-67400000D02*
X91400000Y-67400000D01*
X98750000Y-68841000D02*
X96270000Y-68841000D01*
X99060000Y-67320000D02*
X91400000Y-67320000D01*
X98527000Y-69281000D02*
X96270000Y-69281000D01*
X98161000Y-69801000D02*
X92299000Y-69801000D01*
X94190000Y-69361000D02*
X91981000Y-69361000D01*
X98318000Y-69601000D02*
X96270000Y-69601000D01*
X98402000Y-69481000D02*
X96270000Y-69481000D01*
X97730000Y-70241000D02*
X92730000Y-70241000D01*
X94190000Y-68041000D02*
X91467000Y-68041000D01*
X95671000Y-71161000D02*
X94789000Y-71161000D01*
X94190000Y-68761000D02*
X91677000Y-68761000D01*
X97862000Y-70121000D02*
X92598000Y-70121000D01*
X98814000Y-68681000D02*
X96270000Y-68681000D01*
X94190000Y-68081000D02*
X91475000Y-68081000D01*
X98551000Y-69241000D02*
X96270000Y-69241000D01*
X98843000Y-68601000D02*
X96270000Y-68601000D01*
X97534000Y-70401000D02*
X92926000Y-70401000D01*
X94190000Y-68361000D02*
X91542000Y-68361000D01*
X98428000Y-69441000D02*
X96270000Y-69441000D01*
X98798000Y-68721000D02*
X96270000Y-68721000D01*
X94190000Y-69481000D02*
X92058000Y-69481000D01*
X94190000Y-68601000D02*
X91617000Y-68601000D01*
X98959000Y-68201000D02*
X96270000Y-68201000D01*
X94190000Y-69521000D02*
X92086000Y-69521000D01*
X94190000Y-68281000D02*
X91520000Y-68281000D01*
X99035000Y-67760000D02*
X96270000Y-67760000D01*
X97819000Y-70161000D02*
X92641000Y-70161000D01*
X94190000Y-67680000D02*
X91416000Y-67680000D01*
X97982000Y-70001000D02*
X92478000Y-70001000D01*
X94190000Y-69281000D02*
X91933000Y-69281000D01*
X99055000Y-67520000D02*
X91405000Y-67520000D01*
X98985000Y-68081000D02*
X96270000Y-68081000D01*
X94190000Y-68681000D02*
X91646000Y-68681000D01*
X94190000Y-69561000D02*
X92114000Y-69561000D01*
X98573000Y-69201000D02*
X96270000Y-69201000D01*
X96884000Y-70801000D02*
X93576000Y-70801000D01*
X96505000Y-70961000D02*
X93955000Y-70961000D01*
X98783000Y-68761000D02*
X96270000Y-68761000D01*
X97405000Y-63177789D02*
X97405000Y-63927789D01*
X97903000Y-70081000D02*
X92557000Y-70081000D01*
X98128000Y-69841000D02*
X92332000Y-69841000D01*
X99014000Y-67920000D02*
X96270000Y-67920000D01*
X98258000Y-69681000D02*
X92202000Y-69681000D01*
X94190000Y-68521000D02*
X91590000Y-68521000D01*
X99044000Y-67680000D02*
X96270000Y-67680000D01*
X98993000Y-68041000D02*
X96270000Y-68041000D01*
X97684000Y-70281000D02*
X92776000Y-70281000D01*
X94190000Y-67720000D02*
X91420000Y-67720000D01*
X98977000Y-68121000D02*
X96270000Y-68121000D01*
X96258000Y-71041000D02*
X94202000Y-71041000D01*
X94190000Y-68561000D02*
X91604000Y-68561000D01*
X97480000Y-70441000D02*
X92980000Y-70441000D01*
X94190000Y-67760000D02*
X91425000Y-67760000D01*
X94190000Y-68401000D02*
X91553000Y-68401000D01*
X99053000Y-67560000D02*
X96270000Y-67560000D01*
X97244000Y-70601000D02*
X93216000Y-70601000D01*
X97635000Y-70321000D02*
X92825000Y-70321000D01*
X94190000Y-69201000D02*
X91887000Y-69201000D01*
X94190000Y-69081000D02*
X91823000Y-69081000D01*
X97425000Y-70481000D02*
X93035000Y-70481000D01*
X94190000Y-67560000D02*
X91407000Y-67560000D01*
X99000000Y-68000000D02*
X96270000Y-68000000D01*
X96611000Y-70921000D02*
X93849000Y-70921000D01*
X98595000Y-69161000D02*
X96270000Y-69161000D01*
X97943000Y-70041000D02*
X92517000Y-70041000D01*
X98929000Y-68321000D02*
X96270000Y-68321000D01*
X94190000Y-67960000D02*
X91453000Y-67960000D01*
X96799000Y-70841000D02*
X93661000Y-70841000D01*
X94190000Y-69041000D02*
X91803000Y-69041000D01*
X98194000Y-69761000D02*
X92266000Y-69761000D01*
X97039000Y-70721000D02*
X93421000Y-70721000D01*
X98883000Y-68481000D02*
X96270000Y-68481000D01*
X98870000Y-68521000D02*
X96270000Y-68521000D01*
X96708000Y-70881000D02*
X93752000Y-70881000D01*
X99060000Y-67360000D02*
X91400000Y-67360000D01*
X95923000Y-71121000D02*
X94537000Y-71121000D01*
X94190000Y-68441000D02*
X91565000Y-68441000D01*
X94190000Y-67920000D02*
X91446000Y-67920000D01*
X96107000Y-71081000D02*
X94353000Y-71081000D01*
X98346000Y-69561000D02*
X96270000Y-69561000D01*
X94190000Y-67640000D02*
X91413000Y-67640000D01*
X99007000Y-67960000D02*
X96270000Y-67960000D01*
X94190000Y-67880000D02*
X91440000Y-67880000D01*
X94190000Y-67600000D02*
X91410000Y-67600000D01*
X98616000Y-69121000D02*
X96270000Y-69121000D01*
X98657000Y-69041000D02*
X96270000Y-69041000D01*
X94190000Y-68241000D02*
X91510000Y-68241000D01*
X98677000Y-69001000D02*
X96270000Y-69001000D01*
X99040000Y-67720000D02*
X96270000Y-67720000D01*
X94190000Y-69001000D02*
X91783000Y-69001000D01*
X97367000Y-70521000D02*
X93093000Y-70521000D01*
X97111000Y-70681000D02*
X93349000Y-70681000D01*
X98093000Y-69881000D02*
X92367000Y-69881000D01*
X97776000Y-70201000D02*
X92684000Y-70201000D01*
X97780000Y-63552789D02*
X97030000Y-63552789D01*
X94190000Y-69161000D02*
X91865000Y-69161000D01*
X99031000Y-67800000D02*
X96270000Y-67800000D01*
X94190000Y-68841000D02*
X91710000Y-68841000D01*
X94190000Y-67840000D02*
X91435000Y-67840000D01*
X98020000Y-69961000D02*
X92440000Y-69961000D01*
X97585000Y-70361000D02*
X92875000Y-70361000D01*
X98918000Y-68361000D02*
X96270000Y-68361000D01*
X94190000Y-69241000D02*
X91909000Y-69241000D01*
X99059000Y-67440000D02*
X91401000Y-67440000D01*
X98479000Y-69361000D02*
X96270000Y-69361000D01*
X94190000Y-69321000D02*
X91956000Y-69321000D01*
X94190000Y-68121000D02*
X91483000Y-68121000D01*
X98288000Y-69641000D02*
X92172000Y-69641000D01*
X94190000Y-69441000D02*
X92032000Y-69441000D01*
X99047000Y-67640000D02*
X96270000Y-67640000D01*
X98907000Y-68401000D02*
X96270000Y-68401000D01*
X94190000Y-68481000D02*
X91577000Y-68481000D01*
X98950000Y-68241000D02*
X96270000Y-68241000D01*
X98828000Y-68641000D02*
X96270000Y-68641000D01*
X97179000Y-70641000D02*
X93281000Y-70641000D01*
X99020000Y-67880000D02*
X96270000Y-67880000D01*
X94190000Y-69601000D02*
X92142000Y-69601000D01*
X98504000Y-69321000D02*
X96270000Y-69321000D01*
X94190000Y-67800000D02*
X91429000Y-67800000D01*
X98226000Y-69721000D02*
X92234000Y-69721000D01*
X98940000Y-68281000D02*
X96270000Y-68281000D01*
X94190000Y-69401000D02*
X92006000Y-69401000D01*
X98895000Y-68441000D02*
X96270000Y-68441000D01*
X94190000Y-68801000D02*
X91694000Y-68801000D01*
X98454000Y-69401000D02*
X96270000Y-69401000D01*
X98696000Y-68961000D02*
X96270000Y-68961000D01*
X99050000Y-67600000D02*
X96270000Y-67600000D01*
X94190000Y-68881000D02*
X91728000Y-68881000D01*
X98374000Y-69521000D02*
X96270000Y-69521000D01*
X98766000Y-68801000D02*
X96270000Y-68801000D01*
X94190000Y-68161000D02*
X91492000Y-68161000D01*
X94190000Y-68961000D02*
X91764000Y-68961000D01*
X98732000Y-68881000D02*
X96270000Y-68881000D01*
X97307000Y-70561000D02*
X93153000Y-70561000D01*
X98856000Y-68561000D02*
X96270000Y-68561000D01*
X94190000Y-68921000D02*
X91746000Y-68921000D01*
X96388000Y-71001000D02*
X94072000Y-71001000D01*
X96963000Y-70761000D02*
X93497000Y-70761000D01*
X99057000Y-67480000D02*
X91403000Y-67480000D01*
X94190000Y-68641000D02*
X91632000Y-68641000D01*
X94190000Y-68321000D02*
X91531000Y-68321000D01*
X94190000Y-68201000D02*
X91501000Y-68201000D01*
X94190000Y-69121000D02*
X91844000Y-69121000D01*
X98637000Y-69081000D02*
X96270000Y-69081000D01*
X98057000Y-69921000D02*
X92403000Y-69921000D01*
X99025000Y-67840000D02*
X96270000Y-67840000D01*
X98714000Y-68921000D02*
X96270000Y-68921000D01*
X94190000Y-68000000D02*
X91460000Y-68000000D01*
X99100000Y-67320000D02*
G75*
G03*
X99100000Y-67320000I-3870000J0D01*
G01*
%TO.C,J6*%
X123130000Y-110490000D02*
X125790000Y-110490000D01*
X123130000Y-109220000D02*
X123130000Y-107890000D01*
X123130000Y-110490000D02*
X123130000Y-113090000D01*
X123130000Y-107890000D02*
X124460000Y-107890000D01*
X125790000Y-110490000D02*
X125790000Y-113090000D01*
X123130000Y-113090000D02*
X125790000Y-113090000D01*
%TO.C,C4*%
X101380000Y-75890000D02*
X101365000Y-75890000D01*
X101380000Y-71350000D02*
X101365000Y-71350000D01*
X99240000Y-71350000D02*
X99240000Y-75890000D01*
X99255000Y-71350000D02*
X99240000Y-71350000D01*
X101380000Y-71350000D02*
X101380000Y-75890000D01*
X99255000Y-75890000D02*
X99240000Y-75890000D01*
%TO.C,R3*%
X117880000Y-116110000D02*
X118210000Y-116110000D01*
X118210000Y-122650000D02*
X117880000Y-122650000D01*
X115470000Y-116110000D02*
X115470000Y-122650000D01*
X118210000Y-116110000D02*
X118210000Y-122650000D01*
X115800000Y-116110000D02*
X115470000Y-116110000D01*
X115470000Y-122650000D02*
X115800000Y-122650000D01*
%TO.C,SW1*%
X124210000Y-75240000D02*
X122710000Y-75240000D01*
X120210000Y-76490000D02*
X120210000Y-80990000D01*
X126710000Y-80990000D02*
X126710000Y-76490000D01*
X122710000Y-82240000D02*
X124210000Y-82240000D01*
%TO.C,R4*%
X116090000Y-105510000D02*
X116090000Y-105180000D01*
X122630000Y-105510000D02*
X116090000Y-105510000D01*
X122630000Y-102770000D02*
X116090000Y-102770000D01*
X116090000Y-102770000D02*
X116090000Y-103100000D01*
X122630000Y-105180000D02*
X122630000Y-105510000D01*
X122630000Y-103100000D02*
X122630000Y-102770000D01*
%TO.C,U1*%
X109781000Y-62800000D02*
X109781000Y-64310000D01*
X102810000Y-62800000D02*
X102810000Y-67441000D01*
X102810000Y-67441000D02*
X113050000Y-67441000D01*
X102810000Y-62800000D02*
X113050000Y-62800000D01*
X113050000Y-62800000D02*
X113050000Y-67441000D01*
X106080000Y-62800000D02*
X106080000Y-64310000D01*
X102810000Y-64310000D02*
X113050000Y-64310000D01*
%TO.C,R6*%
X94690000Y-77700000D02*
X94690000Y-77370000D01*
X94690000Y-80110000D02*
X88150000Y-80110000D01*
X88150000Y-80110000D02*
X88150000Y-79780000D01*
X94690000Y-79780000D02*
X94690000Y-80110000D01*
X88150000Y-77370000D02*
X88150000Y-77700000D01*
X94690000Y-77370000D02*
X88150000Y-77370000D01*
%TO.C,R2*%
X126440000Y-69750000D02*
X126440000Y-70080000D01*
X119900000Y-70080000D02*
X119900000Y-69750000D01*
X126440000Y-72490000D02*
X126440000Y-72160000D01*
X119900000Y-72490000D02*
X126440000Y-72490000D01*
X119900000Y-69750000D02*
X126440000Y-69750000D01*
X119900000Y-72160000D02*
X119900000Y-72490000D01*
%TO.C,C2*%
X103920000Y-71350000D02*
X103920000Y-75890000D01*
X103920000Y-75890000D02*
X103905000Y-75890000D01*
X103920000Y-71350000D02*
X103905000Y-71350000D01*
X101795000Y-75890000D02*
X101780000Y-75890000D01*
X101780000Y-71350000D02*
X101780000Y-75890000D01*
X101795000Y-71350000D02*
X101780000Y-71350000D01*
%TO.C,J3*%
X88940000Y-100330000D02*
X88940000Y-102930000D01*
X86280000Y-99060000D02*
X86280000Y-97730000D01*
X86280000Y-102930000D02*
X88940000Y-102930000D01*
X86280000Y-100330000D02*
X86280000Y-102930000D01*
X86280000Y-100330000D02*
X88940000Y-100330000D01*
X86280000Y-97730000D02*
X87610000Y-97730000D01*
%TO.C,C3*%
X106739000Y-74465000D02*
X106739000Y-72855000D01*
X107059000Y-72620000D02*
X107059000Y-72217000D01*
X106859000Y-74758000D02*
X106859000Y-72562000D01*
X107899000Y-72620000D02*
X107899000Y-71436000D01*
X108259000Y-76058000D02*
X108259000Y-74700000D01*
X107979000Y-72620000D02*
X107979000Y-71392000D01*
X108339000Y-72620000D02*
X108339000Y-71232000D01*
X107939000Y-72620000D02*
X107939000Y-71413000D01*
X107499000Y-72620000D02*
X107499000Y-71723000D01*
X108660000Y-76180000D02*
X108660000Y-74700000D01*
X107099000Y-75160000D02*
X107099000Y-74700000D01*
X107179000Y-75265000D02*
X107179000Y-74700000D01*
X108379000Y-72620000D02*
X108379000Y-71218000D01*
X108980000Y-72620000D02*
X108980000Y-71091000D01*
X108259000Y-72620000D02*
X108259000Y-71262000D01*
X106939000Y-74911000D02*
X106939000Y-74700000D01*
X107579000Y-75664000D02*
X107579000Y-74700000D01*
X106939000Y-72620000D02*
X106939000Y-72409000D01*
X107059000Y-75103000D02*
X107059000Y-74700000D01*
X108780000Y-72620000D02*
X108780000Y-71117000D01*
X107899000Y-75884000D02*
X107899000Y-74700000D01*
X107299000Y-75403000D02*
X107299000Y-74700000D01*
X107299000Y-72620000D02*
X107299000Y-71917000D01*
X108219000Y-76042000D02*
X108219000Y-74700000D01*
X108099000Y-72620000D02*
X108099000Y-71331000D01*
X107379000Y-72620000D02*
X107379000Y-71834000D01*
X108620000Y-72620000D02*
X108620000Y-71149000D01*
X107179000Y-72620000D02*
X107179000Y-72055000D01*
X106979000Y-72620000D02*
X106979000Y-72341000D01*
X107219000Y-75313000D02*
X107219000Y-74700000D01*
X107859000Y-75860000D02*
X107859000Y-74700000D01*
X107419000Y-72620000D02*
X107419000Y-71796000D01*
X107019000Y-72620000D02*
X107019000Y-72277000D01*
X108419000Y-72620000D02*
X108419000Y-71205000D01*
X106819000Y-74671000D02*
X106819000Y-72649000D01*
X109180000Y-76240000D02*
X109180000Y-71080000D01*
X106619000Y-73944000D02*
X106619000Y-73376000D01*
X108059000Y-72620000D02*
X108059000Y-71350000D01*
X108860000Y-72620000D02*
X108860000Y-71104000D01*
X107939000Y-75907000D02*
X107939000Y-74700000D01*
X108179000Y-76025000D02*
X108179000Y-74700000D01*
X107339000Y-72620000D02*
X107339000Y-71875000D01*
X108820000Y-72620000D02*
X108820000Y-71110000D01*
X107619000Y-75695000D02*
X107619000Y-74700000D01*
X107419000Y-75524000D02*
X107419000Y-74700000D01*
X108099000Y-75989000D02*
X108099000Y-74700000D01*
X107219000Y-72620000D02*
X107219000Y-72007000D01*
X106979000Y-74979000D02*
X106979000Y-74700000D01*
X107739000Y-75782000D02*
X107739000Y-74700000D01*
X107699000Y-75755000D02*
X107699000Y-74700000D01*
X108339000Y-76088000D02*
X108339000Y-74700000D01*
X108540000Y-72620000D02*
X108540000Y-71169000D01*
X107499000Y-75597000D02*
X107499000Y-74700000D01*
X107139000Y-75214000D02*
X107139000Y-74700000D01*
X108139000Y-72620000D02*
X108139000Y-71312000D01*
X107659000Y-75725000D02*
X107659000Y-74700000D01*
X108860000Y-76216000D02*
X108860000Y-74700000D01*
X108540000Y-76151000D02*
X108540000Y-74700000D01*
X107699000Y-72620000D02*
X107699000Y-71565000D01*
X108740000Y-76196000D02*
X108740000Y-74700000D01*
X108900000Y-76221000D02*
X108900000Y-74700000D01*
X108820000Y-76210000D02*
X108820000Y-74700000D01*
X108580000Y-76161000D02*
X108580000Y-74700000D01*
X107379000Y-75486000D02*
X107379000Y-74700000D01*
X107779000Y-75809000D02*
X107779000Y-74700000D01*
X111774775Y-75385000D02*
X111774775Y-74885000D01*
X109100000Y-76238000D02*
X109100000Y-71082000D01*
X112024775Y-75135000D02*
X111524775Y-75135000D01*
X109220000Y-76240000D02*
X109220000Y-71080000D01*
X107979000Y-75928000D02*
X107979000Y-74700000D01*
X107139000Y-72620000D02*
X107139000Y-72106000D01*
X108299000Y-76074000D02*
X108299000Y-74700000D01*
X108499000Y-76140000D02*
X108499000Y-74700000D01*
X106779000Y-74575000D02*
X106779000Y-72745000D01*
X108780000Y-76203000D02*
X108780000Y-74700000D01*
X108459000Y-72620000D02*
X108459000Y-71192000D01*
X108700000Y-72620000D02*
X108700000Y-71132000D01*
X107819000Y-72620000D02*
X107819000Y-71485000D01*
X106699000Y-74337000D02*
X106699000Y-72983000D01*
X107339000Y-75445000D02*
X107339000Y-74700000D01*
X109140000Y-76239000D02*
X109140000Y-71081000D01*
X107819000Y-75835000D02*
X107819000Y-74700000D01*
X108019000Y-72620000D02*
X108019000Y-71370000D01*
X108019000Y-75950000D02*
X108019000Y-74700000D01*
X107779000Y-72620000D02*
X107779000Y-71511000D01*
X108580000Y-72620000D02*
X108580000Y-71159000D01*
X107619000Y-72620000D02*
X107619000Y-71625000D01*
X107099000Y-72620000D02*
X107099000Y-72160000D01*
X106659000Y-74178000D02*
X106659000Y-73142000D01*
X108700000Y-76188000D02*
X108700000Y-74700000D01*
X107659000Y-72620000D02*
X107659000Y-71595000D01*
X108459000Y-76128000D02*
X108459000Y-74700000D01*
X108299000Y-72620000D02*
X108299000Y-71246000D01*
X107859000Y-72620000D02*
X107859000Y-71460000D01*
X107459000Y-72620000D02*
X107459000Y-71759000D01*
X108499000Y-72620000D02*
X108499000Y-71180000D01*
X108219000Y-72620000D02*
X108219000Y-71278000D01*
X108940000Y-76225000D02*
X108940000Y-74700000D01*
X108620000Y-76171000D02*
X108620000Y-74700000D01*
X108059000Y-75970000D02*
X108059000Y-74700000D01*
X107579000Y-72620000D02*
X107579000Y-71656000D01*
X108139000Y-76008000D02*
X108139000Y-74700000D01*
X108379000Y-76102000D02*
X108379000Y-74700000D01*
X107459000Y-75561000D02*
X107459000Y-74700000D01*
X107739000Y-72620000D02*
X107739000Y-71538000D01*
X108179000Y-72620000D02*
X108179000Y-71295000D01*
X107019000Y-75043000D02*
X107019000Y-74700000D01*
X108660000Y-72620000D02*
X108660000Y-71140000D01*
X108900000Y-72620000D02*
X108900000Y-71099000D01*
X109060000Y-76236000D02*
X109060000Y-71084000D01*
X107259000Y-72620000D02*
X107259000Y-71961000D01*
X109020000Y-76233000D02*
X109020000Y-71087000D01*
X108419000Y-76115000D02*
X108419000Y-74700000D01*
X107539000Y-75631000D02*
X107539000Y-74700000D01*
X108980000Y-76229000D02*
X108980000Y-74700000D01*
X107259000Y-75359000D02*
X107259000Y-74700000D01*
X108940000Y-72620000D02*
X108940000Y-71095000D01*
X108740000Y-72620000D02*
X108740000Y-71124000D01*
X107539000Y-72620000D02*
X107539000Y-71689000D01*
X106899000Y-74838000D02*
X106899000Y-72482000D01*
X111840000Y-73660000D02*
G75*
G03*
X111840000Y-73660000I-2620000J0D01*
G01*
%TO.C,R1*%
X114180000Y-76740000D02*
X114510000Y-76740000D01*
X116590000Y-83280000D02*
X116920000Y-83280000D01*
X116920000Y-83280000D02*
X116920000Y-76740000D01*
X114510000Y-83280000D02*
X114180000Y-83280000D01*
X114180000Y-83280000D02*
X114180000Y-76740000D01*
X116920000Y-76740000D02*
X116590000Y-76740000D01*
%TO.C,J4*%
X86280000Y-110490000D02*
X88940000Y-110490000D01*
X86280000Y-123250000D02*
X88940000Y-123250000D01*
X88940000Y-110490000D02*
X88940000Y-123250000D01*
X86280000Y-107890000D02*
X87610000Y-107890000D01*
X86280000Y-110490000D02*
X86280000Y-123250000D01*
X86280000Y-109220000D02*
X86280000Y-107890000D01*
%TO.C,U2*%
X114250000Y-99160000D02*
X124530000Y-99160000D01*
X114250000Y-93860000D02*
X114250000Y-95510000D01*
X124530000Y-99160000D02*
X124530000Y-93860000D01*
X124530000Y-93860000D02*
X114250000Y-93860000D01*
X114250000Y-97510000D02*
X114250000Y-99160000D01*
X114250000Y-97510000D02*
G75*
G03*
X114250000Y-95510000I0J1000000D01*
G01*
%TO.C,A1*%
X110620000Y-82420000D02*
X92580000Y-82420000D01*
X97660000Y-117980000D02*
X105540000Y-117980000D01*
X110620000Y-125860000D02*
X105540000Y-125860000D01*
X107950000Y-85090000D02*
X107950000Y-123190000D01*
X97660000Y-128400000D02*
X97660000Y-117980000D01*
X92580000Y-82420000D02*
X92580000Y-85090000D01*
X95250000Y-123190000D02*
X92580000Y-123190000D01*
X107950000Y-85090000D02*
X110620000Y-85090000D01*
X92580000Y-87630000D02*
X92580000Y-125860000D01*
X95250000Y-87630000D02*
X95250000Y-85090000D01*
X95250000Y-85090000D02*
X92580000Y-85090000D01*
X105540000Y-117980000D02*
X105540000Y-128400000D01*
X92580000Y-125860000D02*
X97660000Y-125860000D01*
X110620000Y-125860000D02*
X110620000Y-82420000D01*
X95250000Y-87630000D02*
X92580000Y-87630000D01*
X105540000Y-128400000D02*
X97660000Y-128400000D01*
X95250000Y-87630000D02*
X95250000Y-123190000D01*
X107950000Y-123190000D02*
X110620000Y-123190000D01*
%TO.C,J2*%
X86280000Y-87630000D02*
X86280000Y-92770000D01*
X88940000Y-87630000D02*
X88940000Y-92770000D01*
X86280000Y-87630000D02*
X88940000Y-87630000D01*
X86280000Y-85030000D02*
X87610000Y-85030000D01*
X86280000Y-86360000D02*
X86280000Y-85030000D01*
X86280000Y-92770000D02*
X88940000Y-92770000D01*
%TO.C,J1*%
X86280000Y-67340000D02*
X86280000Y-69940000D01*
X86280000Y-66070000D02*
X86280000Y-64740000D01*
X86280000Y-69940000D02*
X88940000Y-69940000D01*
X86280000Y-67340000D02*
X88940000Y-67340000D01*
X88940000Y-67340000D02*
X88940000Y-69940000D01*
X86280000Y-64740000D02*
X87610000Y-64740000D01*
%TO.C,J5*%
X123130000Y-115510000D02*
X124460000Y-115510000D01*
X123130000Y-120710000D02*
X125790000Y-120710000D01*
X125790000Y-118110000D02*
X125790000Y-120710000D01*
X123130000Y-118110000D02*
X123130000Y-120710000D01*
X123130000Y-118110000D02*
X125790000Y-118110000D01*
X123130000Y-116840000D02*
X123130000Y-115510000D01*
%TO.C,R5*%
X114840000Y-90270000D02*
X121380000Y-90270000D01*
X114840000Y-89940000D02*
X114840000Y-90270000D01*
X114840000Y-87530000D02*
X121380000Y-87530000D01*
X114840000Y-87860000D02*
X114840000Y-87530000D01*
X121380000Y-87530000D02*
X121380000Y-87860000D01*
X121380000Y-90270000D02*
X121380000Y-89940000D01*
%TO.C,D1*%
X122880000Y-64804000D02*
X122880000Y-64960000D01*
X122880000Y-67120000D02*
X122880000Y-67276000D01*
X126112335Y-64961392D02*
G75*
G03*
X122880000Y-64804484I-1672335J-1078608D01*
G01*
X122880000Y-67275516D02*
G75*
G03*
X126112335Y-67118608I1560000J1235516D01*
G01*
X125481130Y-64960163D02*
G75*
G03*
X123399039Y-64960000I-1041130J-1079837D01*
G01*
X123399039Y-67120000D02*
G75*
G03*
X125481130Y-67119837I1040961J1080000D01*
G01*
%TD*%
M02*
