%TF.GenerationSoftware,KiCad,Pcbnew,(6.0.9)*%
%TF.CreationDate,2023-06-07T19:24:55+02:00*%
%TF.ProjectId,PCB_Complet,5043425f-436f-46d7-906c-65742e6b6963,rev?*%
%TF.SameCoordinates,Original*%
%TF.FileFunction,Soldermask,Bot*%
%TF.FilePolarity,Negative*%
%FSLAX46Y46*%
G04 Gerber Fmt 4.6, Leading zero omitted, Abs format (unit mm)*
G04 Created by KiCad (PCBNEW (6.0.9)) date 2023-06-07 19:24:55*
%MOMM*%
%LPD*%
G01*
G04 APERTURE LIST*
%ADD10C,3.800000*%
%ADD11R,1.600000X1.600000*%
%ADD12C,1.600000*%
%ADD13R,1.700000X1.700000*%
%ADD14O,1.700000X1.700000*%
%ADD15O,1.600000X1.600000*%
%ADD16C,2.000000*%
%ADD17R,1.905000X2.000000*%
%ADD18O,1.905000X2.000000*%
%ADD19R,1.800000X1.800000*%
%ADD20C,1.800000*%
G04 APERTURE END LIST*
D10*
%TO.C,M2*%
X87610000Y-73660000D03*
%TD*%
%TO.C,M2*%
X125710000Y-124460000D03*
%TD*%
D11*
%TO.C,C1*%
X95230000Y-66070000D03*
D12*
X95230000Y-68570000D03*
%TD*%
D13*
%TO.C,J6*%
X124460000Y-109220000D03*
D14*
X124460000Y-111760000D03*
%TD*%
D12*
%TO.C,C4*%
X100310000Y-71120000D03*
X100310000Y-76120000D03*
%TD*%
%TO.C,R3*%
X116840000Y-115570000D03*
D15*
X116840000Y-123190000D03*
%TD*%
D16*
%TO.C,SW1*%
X125710000Y-75490000D03*
X125710000Y-81990000D03*
X121210000Y-75490000D03*
X121210000Y-81990000D03*
%TD*%
D12*
%TO.C,R4*%
X123170000Y-104140000D03*
D15*
X115550000Y-104140000D03*
%TD*%
D17*
%TO.C,U1*%
X105390000Y-66070000D03*
D18*
X107930000Y-66070000D03*
X110470000Y-66070000D03*
%TD*%
D12*
%TO.C,R6*%
X95230000Y-78740000D03*
D15*
X87610000Y-78740000D03*
%TD*%
D12*
%TO.C,R2*%
X119360000Y-71120000D03*
D15*
X126980000Y-71120000D03*
%TD*%
D12*
%TO.C,C2*%
X102850000Y-71120000D03*
X102850000Y-76120000D03*
%TD*%
D13*
%TO.C,J3*%
X87610000Y-99060000D03*
D14*
X87610000Y-101600000D03*
%TD*%
D11*
%TO.C,C3*%
X110470000Y-73660000D03*
D12*
X107970000Y-73660000D03*
%TD*%
%TO.C,R1*%
X115550000Y-83820000D03*
D15*
X115550000Y-76200000D03*
%TD*%
D13*
%TO.C,J4*%
X87610000Y-109220000D03*
D14*
X87610000Y-111760000D03*
X87610000Y-114300000D03*
X87610000Y-116840000D03*
X87610000Y-119380000D03*
X87610000Y-121920000D03*
%TD*%
D11*
%TO.C,U2*%
X115580000Y-100320000D03*
D15*
X118120000Y-100320000D03*
X120660000Y-100320000D03*
X123200000Y-100320000D03*
X123200000Y-92700000D03*
X120660000Y-92700000D03*
X118120000Y-92700000D03*
X115580000Y-92700000D03*
%TD*%
D11*
%TO.C,A1*%
X93980000Y-86360000D03*
D15*
X93980000Y-88900000D03*
X93980000Y-91440000D03*
X93980000Y-93980000D03*
X93980000Y-96520000D03*
X93980000Y-99060000D03*
X93980000Y-101600000D03*
X93980000Y-104140000D03*
X93980000Y-106680000D03*
X93980000Y-109220000D03*
X93980000Y-111760000D03*
X93980000Y-114300000D03*
X93980000Y-116840000D03*
X93980000Y-119380000D03*
X93980000Y-121920000D03*
X109220000Y-121920000D03*
X109220000Y-119380000D03*
X109220000Y-116840000D03*
X109220000Y-114300000D03*
X109220000Y-111760000D03*
X109220000Y-109220000D03*
X109220000Y-106680000D03*
X109220000Y-104140000D03*
X109220000Y-101600000D03*
X109220000Y-99060000D03*
X109220000Y-96520000D03*
X109220000Y-93980000D03*
X109220000Y-91440000D03*
X109220000Y-88900000D03*
X109220000Y-86360000D03*
%TD*%
D13*
%TO.C,J2*%
X87610000Y-86360000D03*
D14*
X87610000Y-88900000D03*
X87610000Y-91440000D03*
%TD*%
D13*
%TO.C,J1*%
X87610000Y-66070000D03*
D14*
X87610000Y-68610000D03*
%TD*%
D13*
%TO.C,J5*%
X124460000Y-116840000D03*
D14*
X124460000Y-119380000D03*
%TD*%
D12*
%TO.C,R5*%
X114300000Y-88900000D03*
D15*
X121920000Y-88900000D03*
%TD*%
D19*
%TO.C,D1*%
X123170000Y-66040000D03*
D20*
X125710000Y-66040000D03*
%TD*%
M02*
