M48
; DRILL file {KiCad (6.0.9)} date Wed Jun 14 19:13:20 2023
; FORMAT={-:-/ absolute / inch / decimal}
; #@! TF.CreationDate,2023-06-14T19:13:20+02:00
; #@! TF.GenerationSoftware,Kicad,Pcbnew,(6.0.9)
; #@! TF.FileFunction,Plated,1,2,PTH
FMAT,2
INCH
; #@! TA.AperFunction,Plated,PTH,ViaDrill
T1C0.0157
; #@! TA.AperFunction,Plated,PTH,ComponentDrill
T2C0.0315
; #@! TA.AperFunction,Plated,PTH,ComponentDrill
T3C0.0354
; #@! TA.AperFunction,Plated,PTH,ComponentDrill
T4C0.0394
; #@! TA.AperFunction,Plated,PTH,ComponentDrill
T5C0.0433
; #@! TA.AperFunction,Plated,PTH,ComponentDrill
T6C0.0866
%
G90
G05
T1
X3.9Y-3.8
X3.9Y-3.8
X3.9Y-4.8
X4.1Y-3.5
X4.1Y-3.9
T2
X3.4492Y-3.1
X3.7492Y-2.6012
X3.7492Y-2.6996
X3.7492Y-3.1
X3.9492Y-2.8
X3.9492Y-2.9969
X4.0492Y-2.8
X4.0492Y-2.9969
X4.2508Y-2.9
X4.3492Y-2.9
X4.5Y-3.5
X4.5492Y-3.0
X4.5492Y-3.3
X4.5492Y-4.1
X4.5504Y-3.6496
X4.5504Y-3.9496
X4.6Y-4.55
X4.6Y-4.85
X4.6504Y-3.6496
X4.6504Y-3.9496
X4.6992Y-2.8
X4.7504Y-3.6496
X4.7504Y-3.9496
X4.8Y-3.5
X4.8492Y-4.1
X4.8504Y-3.6496
X4.8504Y-3.9496
X4.9992Y-2.8
T3
X4.8492Y-2.6
X4.9492Y-2.6
T4
X3.4492Y-2.6012
X3.4492Y-2.7012
X3.4492Y-3.4
X3.4492Y-3.5
X3.4492Y-3.6
X3.4492Y-3.9
X3.4492Y-4.0
X3.4492Y-4.3
X3.4492Y-4.4
X3.4492Y-4.5
X3.4492Y-4.6
X3.4492Y-4.7
X3.4492Y-4.8
X3.7Y-3.4
X3.7Y-3.5
X3.7Y-3.6
X3.7Y-3.7
X3.7Y-3.8
X3.7Y-3.9
X3.7Y-4.0
X3.7Y-4.1
X3.7Y-4.2
X3.7Y-4.3
X3.7Y-4.4
X3.7Y-4.5
X3.7Y-4.6
X3.7Y-4.7
X3.7Y-4.8
X4.3Y-3.4
X4.3Y-3.5
X4.3Y-3.6
X4.3Y-3.7
X4.3Y-3.8
X4.3Y-3.9
X4.3Y-4.0
X4.3Y-4.1
X4.3Y-4.2
X4.3Y-4.3
X4.3Y-4.4
X4.3Y-4.5
X4.3Y-4.6
X4.3Y-4.7
X4.3Y-4.8
X4.9Y-4.3
X4.9Y-4.4
X4.9Y-4.6
X4.9Y-4.7
T5
X4.1492Y-2.6012
X4.2492Y-2.6012
X4.3492Y-2.6012
X4.772Y-2.972
X4.772Y-3.228
X4.9492Y-2.972
X4.9492Y-3.228
T6
X3.4492Y-2.9
X4.9492Y-4.9
T0
M30
